<svg width="41" height="41" viewBox="0 0 41 41" fill="none" xmlns="http://www.w3.org/2000/svg">
<path d="M24.9167 12.8334C25.1356 12.6146 25.3955 12.4409 25.6814 12.3225C25.9674 12.204 26.2739 12.1431 26.5834 12.1431C26.8929 12.1431 27.1994 12.204 27.4854 12.3225C27.7714 12.4409 28.0312 12.6146 28.2501 12.8334C28.469 13.0523 28.6426 13.3121 28.761 13.5981C28.8795 13.8841 28.9404 14.1906 28.9404 14.5001C28.9404 14.8096 28.8795 15.1161 28.761 15.4021C28.6426 15.688 28.469 15.9479 28.2501 16.1668L17.0001 27.4168L12.4167 28.6668L13.6667 24.0834L24.9167 12.8334Z" stroke="#667085" stroke-width="1.66667" stroke-linecap="round" stroke-linejoin="round"/>
</svg>
