<svg width="21" height="21" viewBox="0 0 21 21" fill="none" xmlns="http://www.w3.org/2000/svg">
<path d="M14.9167 2.83342C15.1356 2.61455 15.3955 2.44094 15.6814 2.32248C15.9674 2.20403 16.2739 2.14307 16.5834 2.14307C16.8929 2.14307 17.1994 2.20403 17.4854 2.32248C17.7714 2.44094 18.0312 2.61455 18.2501 2.83342C18.469 3.05229 18.6426 3.31213 18.761 3.5981C18.8795 3.88406 18.9404 4.19056 18.9404 4.50009C18.9404 4.80962 18.8795 5.11612 18.761 5.40208C18.6426 5.68805 18.469 5.94789 18.2501 6.16676L7.00008 17.4168L2.41675 18.6668L3.66675 14.0834L14.9167 2.83342Z" stroke="#667085" stroke-width="1.66667" stroke-linecap="round" stroke-linejoin="round"/>
</svg>
