<svg width="92" height="122" viewBox="0 0 92 122" fill="none" xmlns="http://www.w3.org/2000/svg">
<path d="M46.2977 121.306L41.1572 118.331L25.1355 108.887L24.299 109.278L20.7776 111.093H20.7371L15.7654 108.111L0 98.8824V28.3331H0.0405153L48.9083 0L91.0638 24.6498V95.2059H91.0165L46.2977 121.306ZM25.149 108.718H25.1895L41.2517 118.162L46.3044 121.09L90.8952 95.1182V24.7577L48.9083 0.209123L48.3215 0.559906L0.188907 28.441V98.7947L15.8733 107.969L20.8046 110.931L24.2382 109.157L25.149 108.718Z" fill="#667085"/>
<path d="M40.3747 118.783L40.3343 118.756L24.1169 109.359L24.1979 109.217L40.3815 118.587L41.164 118.183L65.6384 103.922L70.7721 106.897L70.6911 107.045L65.6384 104.117L41.245 118.331L40.3747 118.783Z" fill="#667085"/>
<path d="M70.2863 107.274H70.1177V36.779L70.1581 36.752L90.9357 24.6363L91.0234 24.7847L70.2863 36.8735V107.274Z" fill="#667085"/>
<path d="M71.7368 71.1362V71.3318L59.5469 78.4421V78.2465L71.7368 71.1362Z" fill="#667085" stroke="#667085" stroke-miterlimit="10"/>
<path d="M5.18091 102.026V31.5509H5.22818L49.1445 6.24002H49.1848L86.2877 27.7057V98.2415L86.1595 98.1673L49.1647 76.7084L5.18091 102.026ZM5.34956 31.6453V101.729L49.0567 76.56V6.4559L5.34956 31.6453ZM49.1983 76.56L86.0719 97.9515V27.7934L49.1983 6.44239V76.56Z" fill="#667085"/>
<path d="M66.2656 109.615L61.1724 106.66L61.26 106.519L66.3465 109.467L66.2656 109.615Z" fill="#667085"/>
<path d="M67.4936 108.759L62.4004 105.804L62.4881 105.655L67.5813 108.61L67.4936 108.759Z" fill="#667085"/>
<path d="M68.9709 107.915L63.8777 104.961L63.9586 104.812L69.0518 107.767L68.9709 107.915Z" fill="#667085"/>
<path d="M65.0178 110.499L59.9246 107.544L60.0055 107.396L65.0987 110.351L65.0178 110.499Z" fill="#667085"/>
<path d="M63.4999 111.389L58.4067 108.435L58.4944 108.286L63.5876 111.241L63.4999 111.389Z" fill="#667085"/>
<path d="M62.0966 112.158L57.0034 109.204L57.0911 109.062L62.1843 112.017L62.0966 112.158Z" fill="#667085"/>
<path d="M60.6396 112.921L55.5464 109.966L55.6341 109.824L60.7273 112.779L60.6396 112.921Z" fill="#667085"/>
<path d="M59.2905 113.703L54.1973 110.749L54.2782 110.6L59.3714 113.555L59.2905 113.703Z" fill="#667085"/>
<path d="M57.8198 114.607L52.7266 111.653L52.8075 111.504L57.9007 114.459L57.8198 114.607Z" fill="#667085"/>
<path d="M56.2209 115.464L51.1277 112.509L51.2086 112.361L56.3019 115.316L56.2209 115.464Z" fill="#667085"/>
<path d="M54.6357 116.314L49.5425 113.359L49.6302 113.218L54.7234 116.172L54.6357 116.314Z" fill="#667085"/>
<path d="M53.2189 117.326L48.1257 114.364L48.2134 114.223L53.3066 117.178L53.2189 117.326Z" fill="#667085"/>
<path d="M51.4042 118.203L46.311 115.248L46.392 115.1L51.4852 118.055L51.4042 118.203Z" fill="#667085"/>
<path d="M49.819 119.269L44.7258 116.314L44.8068 116.172L49.9 119.127L49.819 119.269Z" fill="#667085"/>
<path d="M48.038 120.166L42.9448 117.211L43.0258 117.063L48.119 120.018L48.038 120.166Z" fill="#667085"/>
<path d="M20.8722 111.025H20.7035V40.4893L0.0473633 28.468L0.128312 28.3263L20.8722 40.3881V111.025Z" fill="#667085"/>
<path d="M25.2234 108.819H25.0547V38.1079L9.62671 29.1358L9.71441 28.9874L25.2234 38.0135V108.819Z" fill="#667085"/>
<path d="M46.1021 120.645L9.58618 99.3951V29.0617H9.75483V99.2939L46.1898 120.497L46.1021 120.645Z" fill="#667085"/>
<path d="M25.1516 38.1305L20.7971 40.5017L20.8778 40.6498L25.2322 38.2786L25.1516 38.1305Z" fill="#667085"/>
<path d="M54.4399 116.496V45.8726H54.4805L75.5346 33.6085V104.205H75.4941L54.4399 116.496ZM54.6086 45.9806V116.206L75.3659 104.111V33.8783L54.6086 45.9806Z" fill="#667085"/>
<path d="M46.2301 121.212H46.0614V50.669L25.095 38.135L25.1827 37.9866L46.2301 50.5745V121.212Z" fill="#667085"/>
<path opacity="0.14" d="M75.4538 33.7366L54.5278 45.9333V116.354L75.4538 104.158V33.7366Z" fill="#667085"/>
<path opacity="0.14" d="M70.2053 36.8262L85.9706 27.6315L86.1865 27.7596L86.1528 97.9717L70.1851 107.234L70.2053 36.8262Z" fill="#667085"/>
</svg>
