<svg width="114" height="122" viewBox="0 0 114 122" fill="none" xmlns="http://www.w3.org/2000/svg">
<path d="M48.9083 0L0.0405153 28.3331H0V98.9094L5.18102 101.945L5.26189 101.992L15.7654 108.138L20.7371 111.12H20.7776L24.1506 109.379L24.299 109.305H24.3328L25.1422 108.927L41.0358 118.237L41.1707 118.318H41.2112L46.075 121.137H46.1358L46.3112 121.239L49.8123 119.215L53.1853 117.258L53.2661 117.211L57.8131 114.56L58.3123 114.27L58.4809 114.169L62.0359 112.098L62.1439 112.037L63.3986 111.308L63.5605 111.207L64.9097 110.418L65.0716 110.324L81.633 100.663L81.714 100.616L81.7949 100.569L86.0381 98.0931L86.2473 97.9717L90.9694 95.2058H91.0167V24.6498L48.9083 0ZM90.8952 95.1181L86.2675 97.8165L86.1865 97.8638L86.0989 97.9177H86.0584L85.8897 98.0189L81.6667 100.481L81.5791 100.528L81.4981 100.576L70.7045 106.863L70.5359 106.964L68.964 107.875L67.5137 108.718L66.3332 109.393L66.1645 109.494L64.9502 110.168L64.7883 110.263L63.4391 111.059L63.2705 111.153L62.0832 111.828L61.9145 111.929L60.7002 112.637L60.5316 112.732L59.351 113.406L59.1891 113.501L58.5145 113.885L58.3459 113.987L57.8332 114.283L57.6645 114.385L56.3153 115.181L56.1534 115.275L54.7369 116.105L54.6288 116.166L53.2258 116.982L53.0571 117.083L51.4988 117.994L51.3909 118.054L49.8528 118.952L49.6842 119.053L48.1393 119.95L48.0247 120.017L46.3449 120.996L46.2774 120.955L46.1088 120.861L41.3866 118.162L41.2584 118.088H41.2179L25.2435 108.705H25.1963L25.1085 108.745L24.272 109.143L20.899 110.877L20.8181 110.917L20.7303 110.863L15.88 107.956L5.4643 101.884L5.21462 101.736L0.202412 98.8015V28.4275L0.283443 28.3803L48.3485 0.546422L48.942 0.195639L90.8346 24.6902L90.9289 24.7442L90.8952 95.1181Z" fill="#667085"/>
<path d="M40.3747 118.763L40.3343 118.742L24.1169 109.345L24.1979 109.197L40.3815 118.574L41.164 118.169L65.6384 103.901L70.7721 106.883L70.6911 107.031L65.6384 104.097L41.245 118.317L40.3747 118.763Z" fill="#667085"/>
<path d="M81.6264 30.1949L81.5454 30.0465L90.9358 24.616L91.0235 24.7644L81.6264 30.1949Z" fill="#667085"/>
<path d="M49.2253 76.5465V48.888L49.0566 48.9825V76.5127L46.2301 78.1385L46.0615 78.2397V78.4286L46.2301 78.3274L49.1377 76.6544L58.319 81.9837V81.7881L49.2253 76.5465ZM86.1124 27.6045L85.937 27.5033L49.1849 6.2265H49.1377L5.43052 31.4227L5.26187 31.5172H5.2146V102.006L5.29563 101.959L5.46428 101.864L9.70077 99.4221L9.86942 99.3276L20.7303 93.0674L20.899 92.9729L25.0884 90.5579L25.257 90.4634L46.0952 78.4623L46.2639 78.3611L49.1714 76.6881L58.3526 82.0175L58.5213 82.1119L81.5116 95.4622L81.5926 95.5094L81.6735 95.5566L85.8964 98.0121L85.9841 98.0594L86.1461 98.1538L86.2743 98.228V27.6922L86.1124 27.6045ZM49.0566 76.5465L46.2301 78.1723L46.0615 78.2734L25.2232 90.2745L25.0546 90.369L20.8654 92.784L20.6967 92.8785L9.75462 99.1792L9.58597 99.2736L5.34965 101.716V31.6318L5.42376 31.5846L5.59917 31.4902L9.58597 29.1898L9.667 29.1426L9.75462 29.0954L9.83565 29.0481L49.0566 6.44238V76.5465ZM81.6667 95.361L81.5858 95.3138L81.5048 95.2665L58.4942 81.923L58.3256 81.8286L49.232 76.5532V6.44238L85.7818 27.5977L85.8627 27.645L85.9505 27.6989L86.1056 27.7866V97.9447H86.0651L81.6667 95.361Z" fill="#667085"/>
<path d="M66.2658 109.602L61.1726 106.647L61.2603 106.499L66.3535 109.453L66.2658 109.602Z" fill="#667085"/>
<path d="M67.4936 108.745L62.4004 105.79L62.4881 105.642L67.5813 108.597L67.4936 108.745Z" fill="#667085"/>
<path d="M68.9709 107.895L63.8777 104.947L63.9587 104.799L69.0519 107.753L68.9709 107.895Z" fill="#667085"/>
<path d="M65.0178 110.485L59.9246 107.524L60.0055 107.382L65.0987 110.337L65.0178 110.485Z" fill="#667085"/>
<path d="M63.5 111.376L58.4067 108.421L58.4944 108.273L63.5877 111.228L63.5 111.376Z" fill="#667085"/>
<path d="M62.0967 112.145L57.0034 109.19L57.0911 109.042L62.1844 111.996L62.0967 112.145Z" fill="#667085"/>
<path d="M60.6396 112.907L55.5464 109.952L55.6341 109.804L60.7273 112.759L60.6396 112.907Z" fill="#667085"/>
<path d="M59.2905 113.69L54.1973 110.735L54.2782 110.587L59.3715 113.541L59.2905 113.69Z" fill="#667085"/>
<path d="M57.8197 114.587L52.7266 111.632L52.8075 111.49L57.9007 114.438L57.8197 114.587Z" fill="#667085"/>
<path d="M56.2208 115.444L51.1277 112.489L51.2086 112.347L56.3018 115.302L56.2208 115.444Z" fill="#667085"/>
<path d="M54.6357 116.3L49.5425 113.346L49.6302 113.197L54.7234 116.152L54.6357 116.3Z" fill="#667085"/>
<path d="M53.2191 117.306L48.1326 114.351L48.2135 114.209L53.3068 117.157L53.2191 117.306Z" fill="#667085"/>
<path d="M51.4044 118.189L46.3113 115.235L46.3922 115.086L51.4854 118.041L51.4044 118.189Z" fill="#667085"/>
<path d="M49.819 119.255L44.7258 116.3L44.8068 116.152L49.8999 119.107L49.819 119.255Z" fill="#667085"/>
<path d="M48.038 120.152L42.9448 117.198L43.0325 117.049L48.1257 120.004L48.038 120.152Z" fill="#667085"/>
<path d="M20.8722 111.012H20.7035V40.469L0.0473633 28.4544L0.128312 28.306L20.8722 40.3746V111.012Z" fill="#667085"/>
<path d="M25.2232 108.806H25.0546V38.0944L9.6333 29.1223L9.71425 28.9739L25.2232 38V108.806Z" fill="#667085"/>
<path d="M46.1089 120.625L9.58618 99.3815V29.048H9.75483V99.2803L46.1898 120.483L46.1089 120.625Z" fill="#667085"/>
<path d="M25.1645 38.1488L20.8101 40.52L20.8907 40.6681L25.2452 38.2969L25.1645 38.1488Z" fill="#667085"/>
<path d="M46.2301 121.191H46.0615V50.6553L25.095 38.1213L25.1827 37.9729L46.2301 50.5541V121.191Z" fill="#667085"/>
<path d="M109.46 74.246L108.785 74.5968L107.436 73.7333L105.952 74.3134V76.1416L109.622 78.0844L110.971 77.4503H111.025V75.1769L109.46 74.246ZM109.595 77.8955L106.222 76.1011L106.114 76.0404V74.4281L107.409 73.9222L108.758 74.7924L109.467 74.4416L110.816 75.2444V77.3221L110.722 77.3694L109.595 77.8955Z" fill="#667085"/>
<path d="M110.836 77.4505L107.382 75.5751L106.04 76.1688L105.972 76.0136L107.389 75.3862L107.423 75.4065L110.917 77.2953L110.836 77.4505Z" fill="#667085"/>
<path d="M110.836 76.3171L109.44 75.5211L108.786 75.7976L108.752 75.7774L107.376 75.0286L106.04 75.6088L105.972 75.4536L107.389 74.8397L108.799 75.6088L109.453 75.3322L110.917 76.1754L110.836 76.3171Z" fill="#667085"/>
<path opacity="0.14" d="M86.1865 27.7394L85.9436 27.5977L81.6465 30.1207L81.5857 100.542L86.1865 97.9379V27.7394Z" fill="#667085"/>
<path d="M81.5115 29.9723V100.589L113.892 119.478V48.834L81.5115 29.9723ZM113.703 119.147L81.6666 100.461V30.2691L113.703 48.9352V119.147Z" fill="#667085"/>
<path opacity="0.14" d="M81.5857 30.1207L113.791 48.8812L113.764 119.215L81.5857 100.542V30.1207Z" fill="#667085"/>
</svg>
