<svg width="92" height="122" viewBox="0 0 92 122" fill="none" xmlns="http://www.w3.org/2000/svg">
<path d="M46.2977 121.299L41.1572 118.318L25.1287 108.873L24.2922 109.271L20.7776 111.086H20.7371L15.7654 108.104L0 98.8824V28.3331H0.0405153L48.9083 0L91.0638 24.643V95.1991H91.0167L46.2977 121.299ZM25.1422 108.711L41.2044 118.156L46.2639 121.083L90.8616 95.0777V24.751L48.8747 0.202371L48.2809 0.546422L0.135051 28.4342V98.7812L15.8127 107.962L20.7506 110.917L24.1844 109.15L25.1422 108.711Z" fill="#667085"/>
<path d="M40.3746 118.77L40.3342 118.749L24.1101 109.352L24.1978 109.204L40.3746 118.581L41.1639 118.176L65.6383 103.908L70.772 106.89L70.6843 107.038L65.6383 104.104L41.2449 118.324L40.3746 118.77Z" fill="#667085"/>
<path d="M70.2863 107.261H70.1177V36.7655L70.1581 36.7453L90.9357 24.6228L91.0167 24.7712L70.2863 36.8667V107.261Z" fill="#667085"/>
<path d="M5.18091 102.012V31.5374H5.22801L49.1376 6.2265H49.1848L86.2877 27.6922V98.2348L86.1594 98.1605L49.1578 76.6948L5.18091 102.012ZM5.34956 31.6385V101.722L49.0565 76.5465V6.42887L5.34956 31.6385ZM49.1983 76.5465L86.0717 97.9379V27.7799L49.2252 6.42887L49.1983 76.5465Z" fill="#667085"/>
<path d="M66.2656 109.609L61.1724 106.654L61.2533 106.505L66.3465 109.46L66.2656 109.609Z" fill="#667085"/>
<path d="M67.4934 108.752L62.4001 105.797L62.4878 105.649L67.581 108.603L67.4934 108.752Z" fill="#667085"/>
<path d="M68.9639 107.902L63.8774 104.947L63.9584 104.805L69.0516 107.76L68.9639 107.902Z" fill="#667085"/>
<path d="M65.0177 110.492L59.9177 107.531L60.0054 107.389L65.0986 110.344L65.0177 110.492Z" fill="#667085"/>
<path d="M63.4999 111.383L58.4067 108.428L58.4877 108.28L63.5876 111.234L63.4999 111.383Z" fill="#667085"/>
<path d="M62.0966 112.152L57.0034 109.197L57.0911 109.049L62.1776 112.003L62.0966 112.152Z" fill="#667085"/>
<path d="M60.6396 112.914L55.5464 109.959L55.6341 109.811L60.7273 112.766L60.6396 112.914Z" fill="#667085"/>
<path d="M59.2904 113.697L54.1904 110.735L54.2781 110.593L59.3713 113.548L59.2904 113.697Z" fill="#667085"/>
<path d="M57.8195 114.594L52.7263 111.639L52.8073 111.491L57.9005 114.445L57.8195 114.594Z" fill="#667085"/>
<path d="M56.2209 115.451L51.1277 112.496L51.2086 112.354L56.3018 115.309L56.2209 115.451Z" fill="#667085"/>
<path d="M54.6354 116.307L49.5422 113.353L49.6299 113.204L54.7231 116.159L54.6354 116.307Z" fill="#667085"/>
<path d="M53.2189 117.312L48.1257 114.358L48.2134 114.209L53.3066 117.164L53.2189 117.312Z" fill="#667085"/>
<path d="M51.3974 118.196L46.3042 115.241L46.3919 115.093L51.4851 118.048L51.3974 118.196Z" fill="#667085"/>
<path d="M49.819 119.262L44.7258 116.307L44.8068 116.159L49.9 119.114L49.819 119.262Z" fill="#667085"/>
<path d="M48.038 120.159L42.9448 117.204L43.0258 117.056L48.119 120.011L48.038 120.159Z" fill="#667085"/>
<path d="M20.8721 111.018H20.7034V40.4758L0.0405273 28.4612L0.128225 28.3128L20.8721 40.3813V111.018Z" fill="#667085"/>
<path d="M25.2231 108.812H25.0545V38.1012L9.62646 29.1291L9.71416 28.9807L25.2231 38.0068V108.812Z" fill="#667085"/>
<path d="M46.1019 120.631L9.58594 99.3884V29.0549H9.75459V99.2872L46.1896 120.49L46.1019 120.631Z" fill="#667085"/>
<path d="M20.8248 40.5028L20.7439 40.3544L25.095 37.9798L25.176 38.1282L20.8248 40.5028Z" fill="#667085"/>
<path d="M91.1313 119.572L91.0099 119.498L70.0366 107.281V36.6644L70.1648 36.7386L91.1313 48.9286V119.572ZM70.2188 107.187L90.9761 119.282V49.0567L70.2188 36.9612V107.187Z" fill="#667085"/>
<path d="M46.2301 121.198H46.0614V50.6622L25.095 38.1282L25.1827 37.9798L46.2301 50.5611V121.198Z" fill="#667085"/>
<path d="M87.3333 71.2779L83.6636 69.3418V67.5069L85.1477 66.9335L86.4968 67.797L87.2052 67.4462L88.7028 68.3434V70.6235H88.6557L87.3333 71.2779ZM83.8322 69.2541L87.3401 71.1025L88.5341 70.5291V68.4513L87.1849 67.6485L86.5104 68.0061L85.1612 67.1358L83.866 67.6351L83.8322 69.2541Z" fill="#667085"/>
<path d="M88.5814 70.6439L85.1274 68.7753L83.785 69.3689L83.7175 69.2137L85.1342 68.5864L85.1679 68.6066L88.6623 70.4955L88.5814 70.6439Z" fill="#667085"/>
<path d="M88.5814 69.5173L87.185 68.7213L86.5306 68.9978L86.4969 68.9776L85.1274 68.2288L83.785 68.809L83.7175 68.6538L85.1342 68.0399L86.5441 68.809L87.1984 68.5324L88.6623 69.3756L88.5814 69.5173Z" fill="#667085"/>
<g opacity="0.14">
<path d="M46.1493 50.6083L9.74129 29.0955L9.67383 29.2506V99.3345L46.1493 120.557V50.6083Z" fill="#667085"/>
</g>
<g opacity="0.14">
<path d="M86.1864 27.7462V98.0865L70.1243 107.234V36.8128L86.1864 27.7462Z" fill="#667085"/>
</g>
<g opacity="0.14">
<path d="M91.0503 49.0095L70.1985 36.8128L70.1243 107.234L91.0503 119.431V49.0095Z" fill="#667085"/>
</g>
</svg>
