<svg width="108" height="122" viewBox="0 0 108 122" fill="none" xmlns="http://www.w3.org/2000/svg">
<path d="M46.2977 121.299L41.1572 118.318L25.1287 108.873L24.2922 109.271L20.7776 111.086H20.7373L15.7654 108.104L0 98.8757V28.3331H0.0405153L48.9083 0L91.064 24.643V95.1991H91.0167L46.2977 121.299ZM25.1422 108.711L41.2044 118.156L46.2639 121.083L90.8616 95.0777V24.7442L48.8747 0.202391L48.2809 0.546422L0.135051 28.4343V98.8149L15.8127 107.996L20.7506 110.951L24.1844 109.177L25.1422 108.711Z" fill="#667085"/>
<path d="M40.3747 118.77L40.3342 118.749L24.1101 109.352L24.1978 109.204L40.3814 118.581L41.1639 118.176L65.6383 103.908L70.772 106.89L70.6843 107.032L65.6383 104.104L41.2449 118.324L40.3747 118.77Z" fill="#667085"/>
<path d="M63.3785 75.8922V76.0878L51.1885 83.198V83.0024L63.3785 75.8922Z" fill="#667085" stroke="#667085" stroke-miterlimit="10"/>
<path d="M5.18091 102.012V31.5374H5.22801L49.1376 6.2265H49.1848L86.2877 27.6989V98.228L86.1595 98.1606L49.1578 76.6949L5.18091 102.012ZM5.34956 31.6386V101.722L49.0567 76.5532V6.44911L5.34956 31.6386ZM49.1983 76.5465L86.0717 97.9379V27.7799L49.1983 6.43562V76.5465Z" fill="#667085"/>
<path d="M66.2658 109.608L61.1726 106.654L61.2536 106.505L66.3468 109.46L66.2658 109.608Z" fill="#667085"/>
<path d="M67.4936 108.752L62.4004 105.79L62.4881 105.649L67.5813 108.603L67.4936 108.752Z" fill="#667085"/>
<path d="M68.964 107.902L63.8708 104.947L63.9586 104.805L69.0517 107.76L68.964 107.902Z" fill="#667085"/>
<path d="M65.0177 110.485L59.9246 107.531L60.0055 107.389L65.0987 110.344L65.0177 110.485Z" fill="#667085"/>
<path d="M63.4999 111.376L58.4067 108.421L58.4944 108.28L63.5876 111.234L63.4999 111.376Z" fill="#667085"/>
<path d="M62.0967 112.152L57.0034 109.197L57.0911 109.049L62.1776 112.003L62.0967 112.152Z" fill="#667085"/>
<path d="M60.6395 112.914L55.5464 109.959L55.6341 109.811L60.7272 112.766L60.6395 112.914Z" fill="#667085"/>
<path d="M59.2904 113.69L54.1973 110.735L54.2782 110.593L59.3714 113.548L59.2904 113.69Z" fill="#667085"/>
<path d="M57.8198 114.594L52.7266 111.639L52.8075 111.491L57.9007 114.445L57.8198 114.594Z" fill="#667085"/>
<path d="M56.2209 115.451L51.1277 112.496L51.2086 112.347L56.3019 115.302L56.2209 115.451Z" fill="#667085"/>
<path d="M54.6356 116.307L49.5425 113.353L49.6302 113.204L54.7233 116.159L54.6356 116.307Z" fill="#667085"/>
<path d="M53.2191 117.312L48.126 114.358L48.2137 114.209L53.3068 117.164L53.2191 117.312Z" fill="#667085"/>
<path d="M51.3977 118.189L46.3044 115.235L46.3921 115.093L51.4854 118.048L51.3977 118.189Z" fill="#667085"/>
<path d="M49.8191 119.262L44.7258 116.307L44.8068 116.159L49.9 119.114L49.8191 119.262Z" fill="#667085"/>
<path d="M48.0381 120.152L42.9448 117.198L43.0258 117.056L48.119 120.011L48.0381 120.152Z" fill="#667085"/>
<path d="M20.8653 111.018H20.6967V40.4758L0.0405273 28.4612L0.128228 28.3128L20.8653 40.3813V111.018Z" fill="#667085"/>
<path d="M25.2234 108.806H25.0547V38.1012L9.62671 29.1223L9.71441 28.9807L25.2234 38V108.806Z" fill="#667085"/>
<path d="M46.1021 120.631L9.58618 99.3817V29.0549H9.75483V99.2872L46.1898 120.483L46.1021 120.631Z" fill="#667085"/>
<path d="M25.1737 38.1688L20.8191 40.54L20.8997 40.6882L25.2543 38.3169L25.1737 38.1688Z" fill="#667085"/>
<path d="M46.0615 121.279V50.6554H46.102L67.1629 38.3845V108.981H67.1158L46.0615 121.279ZM46.2302 50.7566V120.982L66.9943 108.887V38.6611L46.2302 50.7566Z" fill="#667085"/>
<path d="M46.2303 121.198H46.0617V50.6555L25.0952 38.1215L25.1829 37.9799L46.2303 50.5611V121.198Z" fill="#667085"/>
<path opacity="0.14" d="M67.0752 38.5128L46.1492 50.7095V121.131L67.0752 108.934V38.5128Z" fill="#667085"/>
<path d="M107.153 110.479L107.025 110.405L86.0515 98.1809V27.5641L86.1796 27.6383L107.153 39.8552V110.479ZM86.2404 98.0864L107.005 110.182V39.9564L86.2404 27.8609V98.0864Z" fill="#667085"/>
<path d="M103.355 62.1776L99.6851 60.2415V58.4133L101.169 57.8332L102.518 58.6967L103.227 58.3459L104.718 59.2498V61.5232H104.67L103.355 62.1776ZM99.8537 60.1538L103.355 62.0089L104.549 61.4288V59.3578L103.2 58.555L102.491 58.9058L101.142 58.0356L99.847 58.5415L99.8537 60.1538Z" fill="#667085"/>
<path d="M104.596 61.5502L101.142 59.6748L99.8067 60.2684L99.7393 60.1133L101.149 59.4859L101.19 59.5061L104.677 61.4018L104.596 61.5502Z" fill="#667085"/>
<path d="M104.596 60.4168L103.207 59.6208L102.552 59.8974L102.512 59.8771L101.142 59.1283L99.8067 59.7085L99.7393 59.5533L101.149 58.9462L102.559 59.7085L103.22 59.4319L104.677 60.2751L104.596 60.4168Z" fill="#667085"/>
<g opacity="0.14">
<path d="M107.072 39.9092L86.2204 27.7192L86.1394 98.1337L107.072 110.33V39.9092Z" fill="#667085"/>
</g>
</svg>
