<svg width="92" height="122" viewBox="0 0 92 122" fill="none" xmlns="http://www.w3.org/2000/svg">
<path d="M46.2975 121.299L41.1572 118.318L25.1355 108.873L24.2922 109.271L20.7776 111.086H20.7371L15.7654 108.104L0 98.8756V28.3331H0.0405153L48.9083 0L91.0638 24.643V95.1923H91.0165L46.2975 121.299ZM25.1287 108.711H25.1625L41.2247 118.156L46.2842 121.09L90.8817 95.0844V24.7442L48.8948 0.202371L48.3012 0.546422L0.168649 28.4275V98.7812L15.8463 107.962L20.7844 110.917L24.218 109.143L25.1287 108.711Z" fill="#667085"/>
<path d="M40.3746 118.77L40.3342 118.749L24.1101 109.352L24.1978 109.204L40.3814 118.574L41.1639 118.169L65.6383 103.908L70.772 106.89L70.6843 107.032L65.6383 104.104L41.2449 118.318L40.3746 118.77Z" fill="#667085"/>
<path d="M5.18091 102.013V31.5374H5.22818L49.1377 6.23328H49.1848L86.2877 27.6989V98.228L86.1595 98.1538L49.158 76.6949L5.18091 102.013ZM5.34956 31.6318V101.722L49.0567 76.56V6.44915L5.34956 31.6318ZM49.1983 76.5465L86.0719 97.938V27.7799L49.1983 6.43565V76.5465Z" fill="#667085"/>
<path d="M66.2656 109.609L61.1724 106.647L61.2533 106.505L66.3465 109.46L66.2656 109.609Z" fill="#667085"/>
<path d="M67.4934 108.745L62.4001 105.79L62.4878 105.649L67.5811 108.603L67.4934 108.745Z" fill="#667085"/>
<path d="M68.964 107.902L63.8708 104.947L63.9586 104.799L69.0517 107.753L68.964 107.902Z" fill="#667085"/>
<path d="M65.0175 110.485L59.9243 107.531L60.0053 107.382L65.0985 110.344L65.0175 110.485Z" fill="#667085"/>
<path d="M63.4997 111.376L58.4065 108.421L58.4942 108.28L63.5874 111.234L63.4997 111.376Z" fill="#667085"/>
<path d="M62.0966 112.152L57.0034 109.19L57.0911 109.049L62.1776 112.003L62.0966 112.152Z" fill="#667085"/>
<path d="M60.6396 112.914L55.5464 109.959L55.6341 109.811L60.7273 112.766L60.6396 112.914Z" fill="#667085"/>
<path d="M59.2835 113.69L54.197 110.735L54.278 110.593L59.3712 113.548L59.2835 113.69Z" fill="#667085"/>
<path d="M57.8195 114.594L52.7263 111.639L52.8073 111.491L57.9005 114.445L57.8195 114.594Z" fill="#667085"/>
<path d="M56.2209 115.451L51.1277 112.496L51.2086 112.347L56.3019 115.302L56.2209 115.451Z" fill="#667085"/>
<path d="M54.6355 116.307L49.5422 113.353L49.6299 113.204L54.7232 116.159L54.6355 116.307Z" fill="#667085"/>
<path d="M53.2189 117.312L48.1257 114.358L48.2134 114.209L53.3066 117.164L53.2189 117.312Z" fill="#667085"/>
<path d="M51.3975 118.189L46.311 115.235L46.392 115.093L51.4852 118.048L51.3975 118.189Z" fill="#667085"/>
<path d="M49.8188 119.262L44.7256 116.307L44.8065 116.159L49.8997 119.114L49.8188 119.262Z" fill="#667085"/>
<path d="M48.038 120.152L42.9448 117.198L43.0258 117.056L48.119 120.011L48.038 120.152Z" fill="#667085"/>
<path d="M20.8719 111.018H20.7033V40.4758L0.0471191 28.4612L0.128078 28.3128L20.8719 40.3746V111.018Z" fill="#667085"/>
<path d="M25.2231 108.806H25.0545V38.1012L9.62646 29.1223L9.71416 28.9807L25.2231 38V108.806Z" fill="#667085"/>
<path d="M46.1019 120.631L9.58594 99.3816V29.0549H9.75459V99.2872L46.1896 120.483L46.1019 120.631Z" fill="#667085"/>
<path d="M25.1447 38.1111L20.7903 40.4822L20.8709 40.6304L25.2254 38.2592L25.1447 38.1111Z" fill="#667085"/>
<path d="M46.2301 121.198H46.0614V50.6555L25.095 38.1215L25.1827 37.9798L46.2301 50.5611V121.198Z" fill="#667085"/>
<path opacity="0.14" d="M46.149 50.6082L9.67358 28.9941V99.3344L46.149 120.557V50.6082Z" fill="#667085"/>
</svg>
