<svg width="103" height="122" viewBox="0 0 103 122" fill="none" xmlns="http://www.w3.org/2000/svg">
<path d="M48.9083 0L0.0405153 28.3331H0V98.9094L5.18086 101.945L5.26189 101.992L15.7654 108.138L20.7371 111.12H20.7776L24.1506 109.379L24.299 109.305H24.3328L25.1422 108.927L41.029 118.264L41.1639 118.345H41.2044L46.0682 121.171H46.129L46.3044 121.272L49.8055 119.248L53.1785 117.292L53.2594 117.245L57.8062 114.594L58.3054 114.304L58.474 114.202L62.0291 112.131L62.1372 112.071L63.3918 111.342L63.5537 111.241L64.9029 110.452L65.0648 110.357L81.6262 100.697L81.7072 100.65L81.7881 100.603L86.0313 98.1269L86.2405 98.0054L90.9627 95.2396H91.01V24.6498L48.9083 0ZM90.8952 95.1182L86.2675 97.8165L86.1865 97.8638L86.0989 97.9177H86.0584L85.8897 98.0189L81.6667 100.481L81.5789 100.528L81.4981 100.576L70.7045 106.863L70.5359 106.964L68.964 107.875L67.5137 108.718L66.3332 109.393L66.1645 109.494L64.9502 110.168L64.7883 110.263L63.4391 111.059L63.2705 111.153L62.0832 111.828L61.9145 111.929L60.7002 112.637L60.5316 112.732L59.351 113.406L59.1891 113.501L58.5145 113.885L58.3459 113.987L57.8332 114.283L57.6645 114.385L56.3153 115.181L56.1534 115.275L54.7369 116.105L54.6288 116.166L53.2258 116.982L53.0571 117.083L51.4988 117.994L51.3907 118.054L49.8528 118.952L49.6842 119.053L48.1393 119.95L48.0245 120.018L46.3448 120.996L46.2774 120.955L46.1088 120.861L41.3866 118.162L41.2584 118.088H41.2179L25.2233 108.758H25.176H25.1422L25.0546 108.799L24.2181 109.197L20.8451 110.931L20.7641 110.971L20.6765 110.917L15.826 108.01L5.41028 101.938L5.16076 101.79L0.148392 98.8554V28.4275L0.229422 28.3803L48.2944 0.546422L48.888 0.195639L90.7805 24.6902L90.8749 24.7442L90.8952 95.1182Z" fill="#667085"/>
<path d="M40.3746 118.763L40.3342 118.742L24.1101 109.345L24.1978 109.197L40.3746 118.574L41.1571 118.169L65.6315 103.901L70.772 106.883L70.6843 107.031L65.6315 104.097L41.2381 118.317L40.3746 118.763Z" fill="#667085"/>
<path d="M46.1828 50.6757L46.1018 50.534L50.6891 47.8761L50.7768 48.0245L46.1828 50.6757Z" fill="#667085"/>
<path d="M81.626 30.1949L81.5383 30.0465L90.9355 24.616L91.0164 24.7644L81.626 30.1949Z" fill="#667085"/>
<path d="M49.2254 76.5465V48.888L49.0567 48.9825V76.5127L46.2302 78.1385L46.0615 78.2397V78.4286L46.2302 78.3274L49.1377 76.6544L58.3189 81.9837V81.7881L49.2254 76.5465ZM86.1124 27.6045L85.937 27.5033L49.185 6.2265H49.1377L5.43059 31.4227L5.26194 31.5172H5.22818H5.18091V102.006L5.26194 101.959L5.43059 101.864L9.66708 99.4221L9.83572 99.3276L20.6966 93.0674L20.8653 92.9729L25.0547 90.5579L25.2233 90.4634L46.0683 78.4623L46.2369 78.3611L49.1445 76.6881L58.3257 82.0175L58.4943 82.1119L81.5049 95.4622L81.5857 95.5094L81.6668 95.5566L85.8898 98.0121L85.9774 98.0594L86.1393 98.1538L86.2676 98.228V27.6922L86.1124 27.6045ZM49.0567 76.5465L46.2302 78.1723L46.0615 78.2734L25.2233 90.2745L25.0547 90.369L20.8653 92.784L20.6966 92.8785L9.75469 99.1792L9.58604 99.2736L5.34956 101.716V31.6318L5.42384 31.5846L5.59924 31.4902L9.58604 29.1898L9.66708 29.1426L9.75469 29.0954L9.83572 29.0481L49.0567 6.44238V76.5465ZM81.6668 95.361L81.5857 95.3138L81.5049 95.2665L58.4943 81.923L58.3257 81.8286L49.2321 76.5532V6.44238L85.7819 27.5977L85.8627 27.645L85.9505 27.6989L86.1057 27.7866V97.9447H86.0652L81.6668 95.361Z" fill="#667085"/>
<path d="M66.2656 109.602L61.1724 106.647L61.2534 106.499L66.3466 109.453L66.2656 109.602Z" fill="#667085"/>
<path d="M67.4934 108.745L62.4001 105.79L62.4811 105.642L67.5743 108.597L67.4934 108.745Z" fill="#667085"/>
<path d="M68.9641 107.895L63.8708 104.947L63.9586 104.799L69.0518 107.753L68.9641 107.895Z" fill="#667085"/>
<path d="M65.0107 110.485L59.9175 107.524L60.0052 107.382L65.0984 110.337L65.0107 110.485Z" fill="#667085"/>
<path d="M63.4999 111.376L58.4067 108.421L58.4877 108.273L63.5809 111.228L63.4999 111.376Z" fill="#667085"/>
<path d="M62.0967 112.145L57.0034 109.19L57.0844 109.042L62.1776 111.997L62.0967 112.145Z" fill="#667085"/>
<path d="M60.6393 112.907L55.5461 109.952L55.6271 109.804L60.7203 112.759L60.6393 112.907Z" fill="#667085"/>
<path d="M59.2836 113.69L54.1904 110.735L54.2781 110.587L59.3713 113.541L59.2836 113.69Z" fill="#667085"/>
<path d="M57.8129 114.587L52.7197 111.632L52.8074 111.49L57.9006 114.438L57.8129 114.587Z" fill="#667085"/>
<path d="M56.214 115.444L51.1208 112.489L51.2086 112.347L56.3017 115.302L56.214 115.444Z" fill="#667085"/>
<path d="M54.6355 116.3L49.5422 113.346L49.6232 113.197L54.7164 116.152L54.6355 116.3Z" fill="#667085"/>
<path d="M53.2189 117.306L48.1257 114.351L48.2067 114.209L53.2999 117.157L53.2189 117.306Z" fill="#667085"/>
<path d="M51.3974 118.189L46.3042 115.235L46.3919 115.086L51.4851 118.041L51.3974 118.189Z" fill="#667085"/>
<path d="M49.8123 119.255L44.7258 116.3L44.8068 116.152L49.9 119.107L49.8123 119.255Z" fill="#667085"/>
<path d="M48.038 120.152L42.9448 117.198L43.0258 117.049L48.119 120.004L48.038 120.152Z" fill="#667085"/>
<path d="M20.8653 111.012H20.6967V40.469L0.0405273 28.4545L0.128228 28.3061L20.8653 40.3746V111.012Z" fill="#667085"/>
<path d="M25.2231 108.806H25.0545V38.0945L9.62646 29.1223L9.71417 28.9739L25.2231 38V108.806Z" fill="#667085"/>
<path d="M46.1019 120.625L9.58594 99.3815V29.048H9.75459V99.2803L46.1828 120.483L46.1019 120.625Z" fill="#667085"/>
<path d="M25.1484 38.1252L20.7939 40.4964L20.8746 40.6445L25.229 38.2733L25.1484 38.1252Z" fill="#667085"/>
<path d="M46.2301 121.191H46.0615V50.6553L25.095 38.1213L25.1827 37.9729L46.2301 50.5541V121.191Z" fill="#667085"/>
<path d="M91.0638 35.5445L90.8951 35.4501L86.2675 32.7517L86.1865 32.7045L86.0988 32.6505L81.7543 30.1005H81.6937L81.6262 30.06H81.5857L81.498 30.0128V100.589L81.6532 100.677L102.471 112.82L102.593 112.894V42.2433L91.0638 35.5445ZM102.424 112.59L81.8218 100.582L81.6734 100.495V30.2692L86.1056 32.8529L86.1932 32.9001L86.2742 32.9473L90.9019 35.6457L91.0705 35.7469L102.431 42.3647L102.424 112.59Z" fill="#667085"/>
<path d="M98.6868 60.7541L98.0122 61.1048L96.663 60.2414L95.179 60.8215V62.6497L98.8487 64.5925L100.198 63.9584H100.252V61.685L98.6868 60.7541ZM98.8217 64.4036L95.4487 62.6092L95.3409 62.5485V60.9362L96.636 60.4302L97.9852 61.3005L98.6936 60.9497L100.043 61.7525V63.8302L99.9484 63.8774L98.8217 64.4036Z" fill="#667085"/>
<path d="M100.036 63.9585L96.5819 62.0831L95.2462 62.6768L95.1787 62.5216L96.5886 61.8943L96.6291 61.9145L100.117 63.8034L100.036 63.9585Z" fill="#667085"/>
<path d="M100.036 62.8251L98.6461 62.0291L97.9918 62.3057L97.958 62.2855L96.5819 61.5367L95.2462 62.1168L95.1787 61.9617L96.5886 61.3478L97.9985 62.1168L98.6596 61.8402L100.124 62.6835L100.036 62.8251Z" fill="#667085"/>
<g opacity="0.14">
<path d="M86.1864 27.7394L85.9436 27.5977L81.6397 30.1207L81.5857 100.542L86.1864 97.9379V27.7394Z" fill="#667085"/>
</g>
<g opacity="0.14">
<path d="M102.512 42.3174L81.5857 30.1207V100.542L102.512 112.739V42.3174Z" fill="#667085"/>
</g>
<path d="M58.4942 43.3764V43.5653L58.3256 43.6598L46.1896 50.6756L46.1086 50.5339L58.3256 43.4709L58.4942 43.3764Z" fill="#667085"/>
<path d="M58.4943 43.3764V114.182L58.3257 114.283V43.4709L58.4943 43.3764Z" fill="#667085"/>
<path opacity="0.14" d="M58.4066 43.5046L46.1829 50.5946L9.66699 29.048V99.3073L46.1222 120.49L46.1155 121.097L46.2774 121.191L58.4066 114.101V43.5046Z" fill="#667085"/>
</svg>
