<svg width="84" height="109" viewBox="0 0 84 109" fill="none" xmlns="http://www.w3.org/2000/svg">
<path d="M78.867 97.7491L78.7051 97.8435L78.8738 97.938L78.9884 97.8773L79.0762 97.83V97.6344L78.867 97.7491ZM41.9193 0L41.825 0.0539587V0.148412H41.8655H41.9193L41.9936 0.101185V0.00675256L41.9193 0Z" fill="#667085"/>
<path d="M83.8388 24.5082V95.0507L83.7984 95.0777L79.0425 97.8503V97.6547L83.6702 94.9563V24.6026L41.9194 0.195681L42.0004 0.148459V0.0540161L83.8388 24.5082Z" fill="#667085"/>
<path d="M78.8334 27.4291L41.9938 6.10507L41.9195 6.05786H41.879H41.8386V76.5937L41.9195 76.5465L42.0073 76.5937L59.8976 86.969L60.0662 87.0702L73.6796 94.963L73.8482 95.0641L78.6715 97.8637L78.8402 97.9582L78.9549 97.8975L79.0426 97.8502V27.5438L78.8334 27.4291ZM78.8334 97.7895L73.8415 94.8887L60.0662 86.8948L59.8976 86.8003L42.0073 76.4183V6.30071L78.6715 27.5235L78.8334 27.618H78.8739L78.8334 97.7895Z" fill="#667085"/>
<path d="M47.4443 108.887H47.1137L46.8169 108.718H47.1542L47.4443 108.887Z" fill="#667085"/>
<path d="M50.4394 108.718L50.1493 108.887H49.812L50.1021 108.718H50.4394Z" fill="#667085"/>
<path d="M78.9817 97.8571L78.9548 97.8976V97.9043L78.8401 97.965L78.8333 97.9718L78.6714 97.8706H78.6647L73.8413 95.071L72.4044 95.9075L72.2425 96.0087H72.2358L70.9406 96.7642L70.7719 96.8587L69.5914 97.5468L69.4227 97.648L68.2152 98.3563L65.3279 100.036L65.2605 100.077L63.945 100.839L63.7763 100.94L62.6026 101.628L62.4271 101.723L61.0982 102.505L60.9363 102.6L60.9296 102.606L60.0593 103.105L59.8907 103.207L59.5534 103.402L59.3915 103.497L58.0355 104.286L57.8669 104.387L57.7522 104.32L57.7994 104.225H57.8062L57.8669 104.192L59.8907 103.011L60.0593 102.91L70.61 96.7642L70.6168 96.7575L70.7719 96.6631L72.0941 95.894L72.2358 95.8131L73.6727 94.9698L73.8346 94.8754H73.8413L78.8333 97.7761H78.8401L78.8738 97.7964L78.9817 97.8571Z" fill="#667085"/>
<path d="M74.5562 100.427L74.5428 100.454L74.4011 100.535L74.2324 100.434L69.4226 97.6479L69.3821 97.6209L69.463 97.4725L69.5912 97.5467L74.4011 100.34L74.5562 100.427Z" fill="#667085"/>
<path d="M75.7033 99.7121L70.6101 96.7574L70.6911 96.6157L75.7843 99.5705L75.7033 99.7121Z" fill="#667085"/>
<path d="M77.1738 98.8689L72.0806 95.9142L72.1683 95.7657L77.2615 98.7205L77.1738 98.8689Z" fill="#667085"/>
<path d="M73.1869 101.237L73.0115 101.338L72.8429 101.237L68.1274 98.4979L68.2151 98.3563L73.0115 101.142L73.1869 101.237Z" fill="#667085"/>
<path d="M71.6557 102.127L71.487 102.222L71.3184 102.121L66.6165 99.3952L66.6974 99.2468L71.487 102.026L71.6557 102.127Z" fill="#667085"/>
<path d="M70.2929 102.917L70.1242 103.011L69.9488 102.91L65.2131 100.164L65.2604 100.076L65.2941 100.016L65.3278 100.036L70.1175 102.815L70.2929 102.917Z" fill="#667085"/>
<path d="M68.9033 103.719L68.7346 103.814L68.5592 103.713L63.7763 100.94L63.7561 100.926L63.8371 100.778L63.945 100.839L68.7279 103.618L68.9033 103.719Z" fill="#667085"/>
<path d="M67.5541 104.502L67.3787 104.401L62.6025 101.628L62.4878 101.561L62.4001 101.709L62.4271 101.722L67.2033 104.495H67.21L67.3854 104.603L67.5541 104.502Z" fill="#667085"/>
<path d="M66.0496 105.379L65.8742 105.473L65.6988 105.372L60.9294 102.606L60.9362 102.6L61.0171 102.458L61.0981 102.505L65.8675 105.271L66.0496 105.379Z" fill="#667085"/>
<path d="M64.5048 106.269L64.3362 106.364L64.1608 106.262L60.0592 103.881L59.8906 103.787L59.3914 103.497L59.3374 103.463L59.4184 103.321L59.5533 103.402L59.8906 103.598L60.0592 103.692L64.3227 106.168L64.5048 106.269Z" fill="#667085"/>
<path d="M62.9263 107.126L62.8859 107.207H62.8791L62.8049 107.254L62.6295 107.146L60.0593 105.655L59.8907 105.561L57.8669 104.387L57.7522 104.32L57.7994 104.225H57.8062L57.8669 104.191L58.0355 104.286L59.8907 105.365L60.0593 105.46L62.7982 107.052L62.9263 107.126Z" fill="#667085"/>
<path d="M60.0593 107.288V107.483L59.8906 107.389V107.193L60.0593 107.288Z" fill="#667085"/>
<path d="M61.4018 108.064L61.2331 108.165L61.051 108.064L61.2197 107.963L61.4018 108.064Z" fill="#667085"/>
<path d="M59.4723 108.887H59.1282L58.8381 108.718H59.1822L59.4723 108.887Z" fill="#667085"/>
<path d="M56.0522 108.887H55.7149L55.4248 108.718H55.7621L56.0522 108.887Z" fill="#667085"/>
<path d="M52.7265 108.887H52.3892L52.0991 108.718H52.4364L52.7265 108.887Z" fill="#667085"/>
<path d="M41.9194 0L41.825 0.0539587L0 24.5081V95.044H0.0405153L4.79629 97.8165L4.9987 97.9312L5.16735 97.8368L5.00546 97.7423H4.96494L4.79629 97.6411L0.168649 94.9427V24.5958L41.8385 0.242845L41.9329 0.188886L42.0072 0.14166V0.0472267L41.9194 0Z" fill="#667085"/>
<path d="M41.9195 6.07135H41.879H41.8386L4.9988 27.3953L4.79639 27.51V97.8165L4.9988 97.9312L5.16745 97.8368L23.7729 87.0432L23.9415 86.942L41.8318 76.5667L41.9127 76.5195L42.0005 76.5667V6.10507L41.9195 6.07135ZM41.8251 76.4116L23.9348 86.7936L23.7661 86.888L4.99205 97.7828H4.95153V27.6584H4.99205L5.15394 27.564L41.8183 6.34118L41.8251 76.4116Z" fill="#667085"/>
<path d="M42.0004 6.11195V0.0945435L41.8318 0.195733V6.11195L41.9127 6.24687L42.0004 6.11195Z" fill="#667085"/>
<path d="M4.98513 27.4291L4.78271 27.5437V27.7394L4.95136 27.6382H4.99188L5.15378 27.5437L4.98513 27.4291ZM22.356 107.807L5.18754 97.8637L5.02564 97.7693H4.98513V28.5084L4.81648 27.7394V97.8165L5.01889 97.9312L22.4303 108.016L22.356 107.807Z" fill="#667085"/>
<path d="M5.18771 27.5235L5.01906 27.4291L4.81665 27.5437V97.8165L5.01906 97.9312L22.4304 108.016L23.7796 108.806L23.8605 108.853V108.651L23.7796 108.603L22.3697 107.78L5.18771 97.8637L5.02581 97.7693H4.9853V27.6112H5.02581L23.7999 38.5059L23.8808 38.5532V38.3575L5.18771 27.5235Z" fill="#667085"/>
<path d="M23.9414 38.3712V108.887H23.8537L23.7727 108.84V38.3712H23.9414Z" fill="#667085"/>
<path d="M78.8332 27.4291L78.6645 27.5235L78.8264 27.618H78.867L79.0356 27.7191V27.5235L78.8332 27.4291ZM78.8332 28.5084V97.7491L78.6713 97.8435L77.2277 98.68L77.0658 98.7744L75.7639 99.53L75.5953 99.6244L74.408 100.299L74.2393 100.393L73.0183 101.068L72.8496 101.163L71.5004 101.952L71.3318 102.046L70.131 102.721L69.9623 102.815L68.7413 103.524L68.5726 103.618L67.3921 104.293L67.2234 104.387L65.8742 105.163L65.7056 105.264L64.3564 106.06L64.1945 106.155L62.8453 106.944L62.6766 107.038L61.5231 107.713L61.4758 107.949L62.825 107.153L62.8993 107.106L64.3496 106.262L64.5183 106.168L65.8675 105.372L66.0429 105.278L67.3921 104.502L67.5607 104.401L68.7413 103.726L68.9099 103.632L70.1242 102.957L70.2929 102.862L71.4869 102.188L71.6556 102.093L73.0047 101.304L73.1802 101.203L74.3945 100.528L74.5361 100.447L78.8264 97.9649L78.9412 97.9042L79.0289 97.857V27.7394L78.8332 28.5084Z" fill="#667085"/>
<path d="M78.8332 27.4291L78.6646 27.5235L59.9783 38.3643V38.5599H60.0255L78.7996 27.6652H78.84V97.8233L78.6781 97.9177L77.2345 98.7542L77.0726 98.8487L75.7705 99.6042L75.6019 99.6986L74.4147 100.373L74.2461 100.468L73.025 101.142L72.8564 101.237L71.5072 102.026L71.3385 102.12L70.1377 102.795L69.9691 102.889L68.748 103.598L68.5794 103.692L67.3988 104.367L67.2302 104.461L65.881 105.237L65.7123 105.338L64.3632 106.134L64.2013 106.229L62.8521 107.018L62.6834 107.112L61.5299 107.787L61.2734 107.935L61.1048 108.037L60.1132 108.61L60.0323 108.657V108.86L60.1132 108.812L61.2869 108.138L61.4556 108.037L62.8048 107.241L62.8791 107.193L64.3294 106.35L64.498 106.256L65.8472 105.46L66.0226 105.365L67.3718 104.589L67.5405 104.488L68.721 103.814L68.8897 103.719L70.104 103.045L70.2726 102.95L71.4667 102.276L71.6353 102.181L72.9845 101.392L73.1599 101.291L74.3742 100.616L74.5159 100.535L78.8062 98.0526L78.921 97.9919L79.0086 97.9447V27.5437L78.8332 27.4291Z" fill="#667085"/>
<path d="M60.0593 38.3712V108.84L59.9783 108.887H59.8906V38.3712H60.0593Z" fill="#667085"/>
<path d="M60.0594 38.3712H23.8538V38.5398H60.0594V38.3712Z" fill="#667085"/>
<path d="M60.0594 108.718H23.8538V108.887H60.0594V108.718Z" fill="#667085"/>
<path opacity="0.14" d="M78.8535 27.5371L59.9783 38.4521H23.8536L4.99865 27.5371L4.84351 27.6518L4.87047 97.7154L23.8941 108.799H59.9783L78.9817 97.8571L78.8535 27.5371Z" fill="#667085"/>
<path d="M28.2251 70.5156L31.9085 70.7922V72.1819L30.4175 73.1263L29.0683 72.9037L28.3937 73.4164L26.8894 73.214V71.5073L26.9367 71.4735L28.2251 70.5156ZM31.7331 70.9271L28.2183 70.664L27.0177 71.5073V73.1128L28.3669 73.2882L29.0751 72.7823L30.4243 72.9981L31.7196 72.1751L31.7331 70.9271Z" fill="#667085"/>
<path d="M26.9769 71.4263L30.4444 71.7231L31.7868 70.8124L31.861 70.9136L30.4376 71.8715L30.4039 71.8648L26.896 71.5679L26.9769 71.4263Z" fill="#667085"/>
<path d="M26.9769 72.2966L28.3734 72.4518L29.0345 72.0201H29.0682L30.4444 72.1415L31.7868 71.2443L31.861 71.3455L30.4376 72.2899L29.021 72.1685L28.3666 72.6002L26.896 72.4383L26.9769 72.2966Z" fill="#667085"/>
</svg>
