<svg id="Capa_1" enable-background="new 0 0 511.981 511.981" height="512" viewBox="0 0 511.981 511.981" width="512" xmlns="http://www.w3.org/2000/svg"><g><g id="_x3C_Group_x3E__4_"><g><path d="m399.337 491.945-332.582 2.903c-27.614 0-50-22.386-50-50l.822-374.668c0-16.325-1.059-43.806 11.044-52.931 8.369-6.31 18.784-10.051 30.073-10.051h337.631c27.614 0 50 22.386 50 50v246.639l-31.216 16.791 31.216 128.989c0 27.613-19.374 42.328-46.988 42.328z" fill="#e9edf1"/><path d="m446.327 303.836c-40.232-15.416-89.148-5.404-120.02 25.04-22.88 21.99-35.48 51.56-35.48 83.27 0 23.321 6.952 45.054 18.895 63.23 1.306 1.988-.134 4.63-2.513 4.63h-248.672c-16.52 0-29.91-13.18-29.91-29.43v-433.32c-12.11 9.11-19.93 23.61-19.93 39.94v392.42c0 27.18 21.69 49.3 48.71 49.98.38.02.75.02 1.13.02h337.94c18.253.021 34.872-10.237 43.36-25.36-.24.126-.49.235-.733.357 4.628-6.556 7.223-14.913 7.223-24.997z" fill="#dce6eb"/><path d="m378.069 418.645-48.282.91c-8.282 0-14.995-6.714-14.995-14.995l-2.297-147.228c0-8.282 6.714-14.995 14.995-14.995l1.297-6.296h64.979c8.282 0 14.995 6.714 14.995 14.995v45.875l-15.697 106.739c0 8.282-6.714 14.995-14.995 14.995z" fill="#b3e59f"/><path d="m388.101 297.759c-21.624 3.552-39.782 10.618-54.488 22.005-1.969 1.525-4.826.122-4.826-2.369v-81.354h-4.999c-8.282 0-14.995 6.713-14.995 14.995v97.516 57.435c0 8.281 6.713 14.995 14.995 14.995h69.977c8.282 0 14.995-6.714 14.995-14.995v-4.998-104.078c-5.036-.803-15.277-.037-20.659.848z" fill="#95d6a4"/></g><g><g><path d="m130.39 328.994-59.617.766c-8.284 0-15-6.716-15-15l.191-61.213c0-8.284 2.718-20.004 11.003-20.004h69.364c8.284 0 15 6.716 15 15v69.364c0 8.284-12.657 11.087-20.941 11.087z" fill="#6d7c84"/><path d="m66.871 313.034v-79.491c-8.231 0-14.905 6.673-14.905 14.905v69.555c0 8.232 6.673 14.905 14.905 14.905h69.555c8.232 0 14.905-6.673 14.905-14.905h-79.492c-2.743-.001-4.968-2.225-4.968-4.969z" fill="#5f6c75"/></g></g><g><g><path d="m259.858 459.954-59.617.766c-8.284 0-15-6.716-15-15l.191-61.213c0-8.284 2.718-20.004 11.003-20.004h69.364c8.284 0 15 6.716 15 15v69.364c0 8.284-12.657 11.087-20.941 11.087z" fill="#6d7c84"/><path d="m196.34 443.994v-79.491c-8.231 0-14.905 6.673-14.905 14.905v69.555c0 8.232 6.673 14.905 14.905 14.905h69.555c8.232 0 14.905-6.673 14.905-14.905h-79.491c-2.745-.001-4.969-2.225-4.969-4.969z" fill="#5f6c75"/></g></g><path d="m381.408 168.51-307.304 2.552c-11.042 0-19.993-8.951-19.993-19.993l-.681-77.762c0-9.501 2.076-24.841 10.961-26.875 1.441-.33 2.94-.504 4.481-.504h319.895c11.042 0 19.993 8.951 19.993 19.993v89.971c0 1.541-.174 3.041-.504 4.481-2.034 8.884-17.346 8.137-26.848 8.137z" fill="#b3e59f"/><path d="m403.762 160.89h-329.892c-5.521 0-9.997-4.476-9.997-9.997v-99.967c0-1.541.191-3.036.521-4.477-8.883 2.035-15.516 9.971-15.516 19.472v89.971c0 11.042 8.951 19.993 19.993 19.993h319.895c9.501 0 17.437-6.633 19.472-15.516-1.44.33-2.934.521-4.476.521z" fill="#95d6a4"/><path d="m261.309 328.798h-69.977c-8.282 0-6.455 2.996-6.455-5.285v-69.977c0-8.282.673-17.67 8.955-17.67h69.977c8.282 0 14.995 6.714 14.995 14.995v69.977c-.001 8.281-9.214 7.96-17.495 7.96z" fill="#6d7c84"/><path d="m132.298 461.265h-69.977c-8.282 0-9.401-2.013-9.401-10.294v-69.977c0-8.282 2.672-14.995 10.954-14.995h69.977c8.282 0 14.995 6.714 14.995 14.995v69.977c0 8.281-8.266 10.294-16.548 10.294z" fill="#6d7c84"/><path d="m193.831 315.839v-79.974c-8.281 0-14.995 6.713-14.995 14.995v69.977c0 8.282 6.714 14.995 14.995 14.995h69.977c8.282 0 14.995-6.714 14.995-14.995h-79.973c-2.761.001-4.999-2.237-4.999-4.998z" fill="#5f6c75"/><path d="m63.874 445.972v-79.974c-8.281 0-14.995 6.714-14.995 14.995v69.977c0 8.282 6.714 14.995 14.995 14.995h69.977c8.282 0 14.995-6.714 14.995-14.995h-79.974c-2.76.001-4.998-2.237-4.998-4.998z" fill="#5f6c75"/><path d="m503.762 407.148c0-53.83-43.638-97.468-97.468-97.468-25.206 0-48.177 9.568-65.479 25.269-19.65 17.832-29.99 43.574-29.99 72.199 0 53.83 41.639 95.469 95.469 95.469 24.708 0 47.269-7.194 64.448-22.347 20.248-17.861 33.02-44 33.02-73.122z" fill="#ffd064"/><path d="m419.289 492.62c-53.83 0-97.468-43.638-97.468-97.468 0-25.132 9.514-48.04 25.134-65.325-23.183 17.818-38.13 45.822-38.13 77.322 0 53.83 43.638 97.468 97.468 97.468 28.698 0 54.497-12.405 72.334-32.143-16.435 12.631-37.007 20.146-59.338 20.146z" fill="#ffc250"/><path d="m473.771 407.148c0-37.267-30.211-67.478-67.478-67.478-15.122 0-29.082 4.974-40.333 13.376-16.477 12.303-25.145 31.957-25.145 54.102 0 37.267 28.212 65.479 65.479 65.479 17.887 0 34.148-4.96 46.224-16.319 13.083-12.308 21.253-29.78 21.253-49.16z" fill="#ffc250"/><path d="m420.289 462.629c-37.267 0-67.478-30.211-67.478-67.478 0-17.174 6.427-32.84 16.993-44.751-18.636 12.009-30.989 32.929-30.989 56.748 0 37.267 30.211 67.478 67.478 67.478 20.093 0 38.123-8.792 50.485-22.726-10.522 6.779-23.041 10.729-36.489 10.729z" fill="#ebb044"/></g><g><path d="m415.638 155.811v-89.992c0-15.163-12.336-27.499-27.498-27.499h-252.063c-4.143 0-7.5 3.358-7.5 7.5s3.357 7.5 7.5 7.5h252.063c6.892 0 12.498 5.607 12.498 12.499v89.992c0 6.892-5.606 12.499-12.498 12.499h-92.843c-4.143 0-7.5 3.358-7.5 7.5s3.357 7.5 7.5 7.5h92.843c15.162 0 27.498-12.336 27.498-27.499z"/><path d="m101.23 38.321h-33.062c-15.162 0-27.498 12.336-27.498 27.499v89.992c0 15.163 12.336 27.499 27.498 27.499h192.196c4.143 0 7.5-3.358 7.5-7.5s-3.357-7.5-7.5-7.5h-192.196c-6.892 0-12.498-5.607-12.498-12.499v-89.993c0-6.892 5.606-12.499 12.498-12.499h33.062c4.143 0 7.5-3.358 7.5-7.5s-3.358-7.499-7.5-7.499z"/><path d="m285.65 250.804c0-12.407-10.094-22.5-22.5-22.5h-69.991c-12.406 0-22.5 10.093-22.5 22.5v69.991c0 12.407 10.094 22.5 22.5 22.5h69.991c12.406 0 22.5-10.093 22.5-22.5zm-15 69.991c0 4.136-3.364 7.5-7.5 7.5h-69.991c-4.136 0-7.5-3.364-7.5-7.5v-69.991c0-4.136 3.364-7.5 7.5-7.5h69.991c4.136 0 7.5 3.364 7.5 7.5z"/><path d="m263.15 358.468h-69.991c-12.406 0-22.5 10.093-22.5 22.5v69.991c0 12.407 10.094 22.5 22.5 22.5h69.991c12.406 0 22.5-10.093 22.5-22.5v-69.991c0-12.406-10.094-22.5-22.5-22.5zm7.5 92.491c0 4.136-3.364 7.5-7.5 7.5h-69.991c-4.136 0-7.5-3.364-7.5-7.5v-69.991c0-4.136 3.364-7.5 7.5-7.5h69.991c4.136 0 7.5 3.364 7.5 7.5z"/><path d="m253.456 260.498c-2.929-2.929-7.677-2.93-10.607 0l-14.695 14.695-14.695-14.695c-2.931-2.93-7.679-2.928-10.607 0-2.929 2.929-2.929 7.678 0 10.606l14.695 14.695-14.695 14.695c-2.929 2.929-2.929 7.678 0 10.606 2.345 2.164 6.713 3.401 10.607 0l14.695-14.695 14.695 14.695c2.346 2.163 6.712 3.401 10.607 0 2.929-2.929 2.929-7.678 0-10.606l-14.695-14.694 14.695-14.695c2.929-2.929 2.929-7.678 0-10.607z"/><path d="m254.456 389.663c-2.93-2.929-7.678-2.929-10.607 0l-41.996 41.996c-2.929 2.929-2.929 7.678 0 10.606 1.465 1.464 3.385 2.197 5.304 2.197s3.839-.732 5.304-2.197l41.996-41.996c2.928-2.929 2.928-7.678-.001-10.606z"/><path d="m40.67 320.795c0 12.407 10.094 22.5 22.5 22.5h69.991c12.406 0 22.5-10.093 22.5-22.5v-69.991c0-12.407-10.094-22.5-22.5-22.5h-69.991c-12.406 0-22.5 10.093-22.5 22.5zm15-69.991c0-4.136 3.364-7.5 7.5-7.5h69.991c4.136 0 7.5 3.364 7.5 7.5v69.991c0 4.136-3.364 7.5-7.5 7.5h-69.991c-4.136 0-7.5-3.364-7.5-7.5z"/><path d="m40.67 450.959c0 12.407 10.094 22.5 22.5 22.5h69.991c12.406 0 22.5-10.093 22.5-22.5v-69.991c0-12.407-10.094-22.5-22.5-22.5h-69.991c-12.406 0-22.5 10.093-22.5 22.5zm15-69.991c0-4.136 3.364-7.5 7.5-7.5h69.991c4.136 0 7.5 3.364 7.5 7.5v69.991c0 4.136-3.364 7.5-7.5 7.5h-69.991c-4.136 0-7.5-3.364-7.5-7.5z"/><path d="m78.167 293.3h12.498v12.498c0 4.142 3.357 7.5 7.5 7.5s7.5-3.358 7.5-7.5v-12.498h12.499c4.143 0 7.5-3.358 7.5-7.5s-3.357-7.5-7.5-7.5h-12.499v-12.499c0-4.142-3.357-7.5-7.5-7.5s-7.5 3.358-7.5 7.5v12.499h-12.498c-4.143 0-7.5 3.358-7.5 7.5s3.358 7.5 7.5 7.5z"/><path d="m78.167 423.464h39.997c4.143 0 7.5-3.358 7.5-7.5s-3.357-7.5-7.5-7.5h-39.997c-4.143 0-7.5 3.358-7.5 7.5s3.358 7.5 7.5 7.5z"/><path d="m73.168 198.307c-4.143 0-7.5 3.358-7.5 7.5s3.357 7.5 7.5 7.5h49.995c4.143 0 7.5-3.358 7.5-7.5s-3.357-7.5-7.5-7.5z"/><path d="m253.152 213.307c4.143 0 7.5-3.358 7.5-7.5s-3.357-7.5-7.5-7.5h-49.995c-4.143 0-7.5 3.358-7.5 7.5s3.357 7.5 7.5 7.5z"/><path d="m333.145 198.307c-4.143 0-7.5 3.358-7.5 7.5s3.357 7.5 7.5 7.5h49.996c4.143 0 7.5-3.358 7.5-7.5s-3.357-7.5-7.5-7.5z"/><path d="m353.544 129.405c-4.958.03-6.113-.15-9.727-2.513-3.467-2.268-8.114-1.296-10.382 2.171-2.268 3.466-1.296 8.114 2.171 10.382 4.073 2.664 7.275 3.946 10.82 4.527v1.84c0 4.142 3.357 7.5 7.5 7.5s7.5-3.358 7.5-7.5v-2.868c7.154-2.733 12.582-9.069 13.916-17.005 1.683-10.011-3.735-19.052-13.482-22.498-1.839-.65-3.495-1.143-4.957-1.579-3.945-1.175-5.377-1.661-6.682-3.218-.308-.366-.674-1.539-.352-3.13.169-.831.779-2.875 2.808-3.913 2.92-1.493 6.365 1.236 6.748 1.553 3.192 2.637 7.92 2.189 10.559-1.004s2.189-7.92-1.004-10.559c-2.084-1.722-4.672-3.257-7.554-4.258v-1.516c0-4.142-3.357-7.5-7.5-7.5s-7.5 3.358-7.5 7.5v2.165c-4.843 2.182-9.869 7.779-11.258 14.552-1.176 5.802.154 11.689 3.559 15.748 4.266 5.088 9.161 6.546 13.895 7.957 1.354.403 2.756.82 4.239 1.345 3.647 1.289 4.02 3.903 3.688 5.868-.368 2.196-2.259 5.922-7.005 5.953z"/><path d="m90.665 145.812c0 4.142 3.357 7.5 7.5 7.5h217.513c4.143 0 7.5-3.358 7.5-7.5s-3.357-7.5-7.5-7.5h-217.513c-4.142 0-7.5 3.358-7.5 7.5z"/><path d="m509.621 391.203c-.62-4.097-4.456-6.916-8.538-6.293-4.096.62-6.913 4.442-6.294 8.538 4.444 29.37-5.85 59.003-27.535 79.271-17.35 16.216-39.457 24.243-61.521 24.241-52.198.231-91.982-44.279-90.004-92.922.808-24.021 10.929-46.294 28.5-62.716 36.275-33.906 93.384-32.011 127.301 4.22 5.53 5.907 10.227 12.494 13.959 19.58 1.931 3.663 6.465 5.071 10.132 3.139 3.664-1.931 5.07-6.467 3.14-10.131-4.357-8.271-9.835-15.955-16.279-22.838-8.123-8.677-17.388-15.662-27.347-20.948v-256.848c0-31.704-25.793-57.496-57.496-57.496h-338.97c-31.703 0-57.495 25.792-57.495 57.496v230.224c0 4.142 3.357 7.5 7.5 7.5s7.5-3.358 7.5-7.5v-230.224c0-23.433 19.064-42.496 42.495-42.496h338.97c23.433 0 42.496 19.063 42.496 42.496v250.338c-7.957-2.737-16.185-4.498-24.497-5.277v-51.578c0-12.406-10.093-22.499-22.498-22.499h-69.994c-12.406 0-22.499 10.093-22.499 22.5l.032 155.893c-.147 25.958 9.994 52.503 28.324 71.875 6.8 7.264 14.401 13.336 22.536 18.225l-292.87-.017c-23.432 0-42.495-19.063-42.495-42.496v-131.701c0-4.142-3.357-7.5-7.5-7.5s-7.5 3.358-7.5 7.5v131.701c0 31.703 25.792 57.496 57.495 57.496 4.302-.027 342.915.072 347.069-.005 25.73-.002 51.525-9.364 71.758-28.274 25.299-23.644 37.308-58.214 32.125-92.474zm-186.475-147.724h69.994c4.135 0 7.498 3.364 7.498 7.499v51.239c-24.014 1.158-47.755 10.484-66.65 28.144-7.218 6.746-13.352 14.34-18.32 22.57l-.021-101.953c0-4.134 3.364-7.499 7.499-7.499z"/><path d="m413.855 399.654c-1.888-.667-3.59-1.173-5.091-1.62-4.114-1.224-5.607-1.731-6.992-3.382-.342-.407-.754-1.689-.407-3.398.179-.886.831-3.065 3.007-4.177 3.137-1.603 6.794 1.291 7.2 1.626 3.194 2.636 7.922 2.185 10.558-1.011 2.637-3.194 2.185-7.922-1.011-10.558-2.163-1.785-4.858-3.369-7.857-4.388v-1.717c0-4.142-3.357-7.5-7.5-7.5s-7.5 3.358-7.5 7.5v2.365c-5 2.214-10.159 7.902-11.598 14.88-1.197 5.906.155 11.895 3.619 16.021 4.351 5.184 9.359 6.674 14.203 8.116 1.397.416 2.843.846 4.375 1.387 3.898 1.377 4.297 4.172 3.943 6.274-.507 3.018-3.05 6.28-7.436 6.309-5.162.042-6.37-.157-10.143-2.623-3.47-2.268-8.115-1.293-10.382 2.175-2.266 3.467-1.292 8.115 2.175 10.381 4.231 2.765 7.545 4.071 11.242 4.651v2.081c0 4.142 3.357 7.5 7.5 7.5s7.5-3.358 7.5-7.5v-3.083c8.008-2.976 13.13-10.228 14.336-17.405 1.713-10.193-3.81-19.397-13.741-22.904z"/><path d="m405.742 332.678c-41.076 0-74.494 33.417-74.494 74.494s33.418 74.494 74.494 74.494 74.494-33.418 74.494-74.494-33.417-74.494-74.494-74.494zm0 133.988c-32.806 0-59.494-26.689-59.494-59.494s26.688-59.494 59.494-59.494 59.494 26.689 59.494 59.494c.001 32.805-26.688 59.494-59.494 59.494z"/><circle cx="206.95" cy="394.751" r="7.499"/><circle cx="249.369" cy="437.17" r="7.499"/></g></g></svg>