<svg width="50" height="50" viewBox="0 0 50 50" fill="none" xmlns="http://www.w3.org/2000/svg">
<circle opacity="0.05" cx="25" cy="25" r="25" fill="#0075FF"/>
<circle opacity="0.08" cx="25" cy="25" r="21" fill="#0075FF"/>
<path d="M30 34V32C30 30.9391 29.5786 29.9217 28.8284 29.1716C28.0783 28.4214 27.0609 28 26 28H18C16.9391 28 15.9217 28.4214 15.1716 29.1716C14.4214 29.9217 14 30.9391 14 32V34M36 34V32C35.9993 31.1137 35.7044 30.2528 35.1614 29.5523C34.6184 28.8519 33.8581 28.3516 33 28.13M29 16.13C29.8604 16.3503 30.623 16.8507 31.1676 17.5523C31.7122 18.2539 32.0078 19.1168 32.0078 20.005C32.0078 20.8932 31.7122 21.7561 31.1676 22.4577C30.623 23.1593 29.8604 23.6597 29 23.88M26 20C26 22.2091 24.2091 24 22 24C19.7909 24 18 22.2091 18 20C18 17.7909 19.7909 16 22 16C24.2091 16 26 17.7909 26 20Z" stroke="#0075FF" stroke-width="2" stroke-linecap="round" stroke-linejoin="round"/>
</svg>
