<svg width="43" height="43" viewBox="0 0 43 43" fill="none" xmlns="http://www.w3.org/2000/svg">
<g clip-path="url(#clip0_5_174)">
<path d="M24.9464 21.1411L20.1175 18.8879C19.6961 18.6922 19.35 18.9115 19.35 19.3781V23.6222C19.35 24.0887 19.6961 24.308 20.1175 24.1124L24.9443 21.8592C25.3678 21.6614 25.3678 21.3389 24.9464 21.1411ZM21.5 0.860107C10.1007 0.860107 0.859985 10.1008 0.859985 21.5001C0.859985 32.8994 10.1007 42.1401 21.5 42.1401C32.8993 42.1401 42.14 32.8994 42.14 21.5001C42.14 10.1008 32.8993 0.860107 21.5 0.860107ZM21.5 29.8851C10.9349 29.8851 10.75 28.9327 10.75 21.5001C10.75 14.0676 10.9349 13.1151 21.5 13.1151C32.0651 13.1151 32.25 14.0676 32.25 21.5001C32.25 28.9327 32.0651 29.8851 21.5 29.8851Z" fill="#8477DA"/>
</g>
<defs>
<clipPath id="clip0_5_174">
<rect width="43" height="43" fill="white"/>
</clipPath>
</defs>
</svg>
