<svg width="50" height="50" viewBox="0 0 50 50" fill="none" xmlns="http://www.w3.org/2000/svg">
<circle opacity="0.05" cx="25" cy="25" r="25" fill="#12B76A"/>
<circle opacity="0.08" cx="25" cy="25" r="21" fill="#12B76A"/>
<path d="M27 15H19C18.4696 15 17.9609 15.2107 17.5858 15.5858C17.2107 15.9609 17 16.4696 17 17V33C17 33.5304 17.2107 34.0391 17.5858 34.4142C17.9609 34.7893 18.4696 35 19 35H31C31.5304 35 32.0391 34.7893 32.4142 34.4142C32.7893 34.0391 33 33.5304 33 33V21M27 15L33 21M27 15V21H33M29 26H21M29 30H21M23 22H21" stroke="#12B76A" stroke-width="2" stroke-linecap="round" stroke-linejoin="round"/>
</svg>
