<svg width="43" height="43" viewBox="0 0 43 43" fill="none" xmlns="http://www.w3.org/2000/svg">
<g clip-path="url(#clip0_5_170)">
<path d="M21.5 0C33.3864 0 43 9.61357 43 21.5C43 33.3864 33.3864 43 21.5 43C9.61357 43 0 33.3864 0 21.5C0 9.61357 9.61357 0 21.5 0ZM17.5686 32.8336C27.09 32.8336 32.3114 24.94 32.3114 18.0907V17.415C33.325 16.6779 34.2157 15.7564 34.8914 14.7121C33.97 15.1114 32.9564 15.3879 31.9121 15.5414C32.9871 14.8964 33.8164 13.8829 34.185 12.685C33.1714 13.2686 32.0657 13.6986 30.8986 13.9443C29.9464 12.9307 28.595 12.3164 27.1207 12.3164C24.2643 12.3164 21.93 14.6507 21.93 17.5071C21.93 17.9064 21.9607 18.3057 22.0836 18.6743C17.7836 18.4593 13.9443 16.4014 11.395 13.2686C10.965 14.0364 10.6886 14.9271 10.6886 15.8793C10.6886 17.6607 11.61 19.2579 12.9921 20.1793C12.1321 20.1793 11.3336 19.9336 10.6579 19.5343V19.5957C10.6579 22.1143 12.4393 24.2029 14.8043 24.6943C14.3743 24.8171 13.9136 24.8786 13.4529 24.8786C13.115 24.8786 12.8079 24.8479 12.47 24.7864C13.115 26.8443 15.05 28.3493 17.2921 28.38C15.5107 29.7621 13.2686 30.5914 10.8421 30.5914C10.4121 30.5914 10.0129 30.5914 9.61357 30.53C11.8864 32.0043 14.62 32.8643 17.5379 32.8643" fill="#8477DA"/>
</g>
<defs>
<clipPath id="clip0_5_170">
<rect width="43" height="43" fill="white"/>
</clipPath>
</defs>
</svg>
