<svg id="Capa_1" enable-background="new 0 0 512 512" height="512" viewBox="0 0 512 512" width="512" xmlns="http://www.w3.org/2000/svg"><g><g><path d="m381.431 87.102v-65.114h-250.862v65.114c0 63.41 31.606 117.806 76.643 141.029 10.109 5.213 16.554 15.679 16.554 27.209v1.321c0 11.53-6.445 21.997-16.554 27.209-45.037 23.223-76.643 77.618-76.643 141.029v65.114h250.863v-65.114c0-63.41-31.606-117.806-76.643-141.029-10.109-5.213-16.554-15.679-16.554-27.209v-1.321c0-11.53 6.445-21.997 16.554-27.209 45.036-23.223 76.642-77.619 76.642-141.029z" fill="#eaf6ff"/><path d="m304.788 228.131c45.037-23.223 76.643-77.619 76.643-141.029v-65.114h-28.346v65.114c0 63.41-31.606 117.806-76.643 141.029-10.109 5.212-16.554 15.679-16.554 27.209v1.32c0 11.531 6.445 21.997 16.554 27.209 45.037 23.223 76.643 77.619 76.643 141.029v65.114h28.346v-65.114c0-63.41-31.606-117.806-76.643-141.029-10.109-5.212-16.554-15.679-16.554-27.209v-1.32c0-11.531 6.445-21.997 16.554-27.209z" fill="#d8ecfe"/><path d="m254.583 204.481c22.411-.459 43.799-11.772 60.366-31.986 13.077-15.956 21.984-35.84 26.066-57.658h-172.865c4.082 21.818 12.989 41.702 26.066 57.658 16.567 20.214 37.955 31.527 60.367 31.986z" fill="#fccd7f"/><path d="m367.258 66.5v-38.713h-236.689v50.134h222.516z" fill="#d8ecfe"/><path d="m353.085 27.787h28.346v50.135h-28.346z" fill="#c4e2ff"/><path d="m402.156 40.999v-16.864c0-9.187-7.32-16.635-16.351-16.635h-265.28c-9.03 0-16.35 7.448-16.35 16.635v16.864c0 9.187 7.32 16.635 16.35 16.635h265.281c9.03.001 16.35-7.447 16.35-16.635z" fill="#aa6a51"/><path d="m391.475 7.5h-28.346c9.03 0 16.35 7.448 16.35 16.635v16.864c0 9.187-7.32 16.635-16.35 16.635h28.346c9.03 0 16.35-7.448 16.35-16.635v-16.864c.001-9.187-7.32-16.635-16.35-16.635z" fill="#935b44"/><path d="m317.784 375.73c-16.916-14.973-38.858-23.219-61.784-23.219s-44.868 8.246-61.784 23.219c-18.45 16.331-28.611 38.331-28.611 61.946v16.689 14.135h180.79v-14.135-16.689c0-23.615-10.161-45.615-28.611-61.946z" fill="#fccd7f"/><g fill="#aa6a51"><path d="m402.157 487.865v-16.864c0-9.188-7.32-16.635-16.351-16.635h-268.116c-9.03 0-16.35 7.448-16.35 16.635v16.864c0 9.187 7.32 16.635 16.35 16.635h268.116c9.03 0 16.351-7.448 16.351-16.635z"/><path d="m404.991 487.865v-16.864c0-9.188-7.32-16.635-16.351-16.635h-268.115c-9.03 0-16.35 7.448-16.35 16.635v16.864c0 9.187 7.32 16.635 16.35 16.635h268.116c9.03 0 16.35-7.448 16.35-16.635z"/><path d="m402.157 487.865v-16.864c0-9.188-7.32-16.635-16.351-16.635h-268.116c-9.03 0-16.35 7.448-16.35 16.635v16.864c0 9.187 7.32 16.635 16.35 16.635h268.116c9.03 0 16.351-7.448 16.351-16.635z"/><path d="m402.157 487.865v-16.864c0-9.188-7.32-16.635-16.351-16.635h-268.116c-9.03 0-16.35 7.448-16.35 16.635v16.864c0 9.187 7.32 16.635 16.35 16.635h268.116c9.03 0 16.351-7.448 16.351-16.635z"/></g><path d="m391.475 454.365h-28.346c9.03 0 16.35 7.448 16.35 16.635v16.864c0 9.187-7.32 16.635-16.35 16.635h28.346c9.03 0 16.35-7.448 16.35-16.635v-16.864c.001-9.187-7.32-16.635-16.35-16.635z" fill="#935b44"/></g><g><path d="m323.584 177.25c13.749-16.774 23.306-37.88 27.638-61.034.868-4.646-2.726-8.879-7.372-8.879h-175.7c-4.652 0-8.24 4.244-7.372 8.879 4.332 23.154 13.889 44.259 27.638 61.033 18.367 22.412 42.369 34.754 67.584 34.754s49.217-12.342 67.584-34.753zm-67.584 19.753c-20.636 0-40.518-10.392-55.982-29.262-10.392-12.677-18.089-28.234-22.522-45.404h157.01c-4.434 17.17-12.131 32.727-22.522 45.405-15.466 18.869-35.348 29.261-55.984 29.261z"/><path d="m263.5 260.737c0-4.214-3.357-7.631-7.5-7.631s-7.5 3.417-7.5 7.631v4.07c0 4.214 3.357 7.631 7.5 7.631s7.5-3.416 7.5-7.631z"/><path d="m263.5 229.977c0-4.214-3.357-7.63-7.5-7.63s-7.5 3.416-7.5 7.63v4.07c0 4.214 3.357 7.63 7.5 7.63s7.5-3.416 7.5-7.63z"/><path d="m256 314.627c-4.143 0-7.5 3.417-7.5 7.631v4.07c0 4.214 3.357 7.631 7.5 7.631s7.5-3.416 7.5-7.631v-4.07c0-4.215-3.357-7.631-7.5-7.631z"/><path d="m263.5 291.497c0-4.215-3.358-7.631-7.5-7.631s-7.5 3.416-7.5 7.63v4.07c0 4.214 3.357 7.631 7.5 7.631 4.142 0 7.5-3.416 7.5-7.631z"/><path d="m370.872 120.151c-.768 4.07 1.91 7.992 5.98 8.76 4.074.768 7.992-1.911 8.76-5.98 3.968-21.05 3.319-35.102 3.319-57.795h2.402c13.229 0 23.992-10.763 23.992-23.992v-17.15c.001-13.231-10.762-23.994-23.991-23.994h-270.668c-13.229 0-23.992 10.763-23.992 23.992v17.15c0 13.229 10.763 23.992 23.992 23.992h2.402v21.967c0 64.441 31.679 122.415 80.706 147.695 16.731 8.628 16.753 33.767 0 42.407-49.027 25.28-80.706 83.254-80.706 147.695v21.967h-2.402c-13.229 0-23.992 10.763-23.992 23.992v17.15c0 13.229 10.763 23.992 23.992 23.992h13.318c4.143 0 7.5-3.358 7.5-7.5s-3.357-7.5-7.5-7.5h-13.318c-4.958 0-8.992-4.034-8.992-8.992v-17.15c0-4.958 4.034-8.992 8.992-8.992h270.668c4.958 0 8.992 4.034 8.992 8.992v17.15c0 4.958-4.034 8.992-8.992 8.992h-222.35c-4.143 0-7.5 3.358-7.5 7.5s3.357 7.5 7.5 7.5h222.35c13.229 0 23.992-10.763 23.992-23.992v-17.15c0-13.229-10.763-23.992-23.992-23.992h-2.402v-21.967c0-64.441-31.679-122.415-80.706-147.695-16.513-8.515-16.968-33.657 0-42.407 29.249-15.082 53.091-42.392 67.135-76.899 1.561-3.837-.283-8.212-4.12-9.774-3.835-1.561-8.213.284-9.774 4.12-12.694 31.195-34.044 55.778-60.115 69.221-27.564 14.216-27.58 54.849 0 69.071 44.092 22.735 72.581 75.476 72.581 134.363v21.967h-20.037v-9.189c0-51.871-45.083-92.666-97.895-92.666-52.774 0-97.895 40.758-97.895 92.666v9.189h-20.037v-21.967c0-58.887 28.489-111.628 72.581-134.363 27.564-14.216 27.58-54.849 0-69.071-44.092-22.735-72.581-75.476-72.581-134.363v-21.966h235.863c0 22.74.609 35.558-3.06 55.016zm-197.767 317.525c0-43.842 38.72-77.666 82.895-77.666 44.237 0 82.895 33.885 82.895 77.666v9.189h-165.79zm-52.439-387.541c-4.958 0-8.992-4.034-8.992-8.992v-17.15c0-4.958 4.034-8.992 8.992-8.992h270.668c4.958 0 8.992 4.034 8.992 8.992v17.15c0 4.958-4.034 8.992-8.992 8.992-6.892 0-263.467 0-270.668 0z"/></g></g></svg>