<svg width="24" height="20" viewBox="0 0 24 20" fill="none" xmlns="http://www.w3.org/2000/svg">
<path d="M17 19.1129V17.1129C17 16.052 16.5786 15.0346 15.8284 14.2845C15.0783 13.5343 14.0609 13.1129 13 13.1129H5C3.93913 13.1129 2.92172 13.5343 2.17157 14.2845C1.42143 15.0346 1 16.052 1 17.1129V19.1129M23 19.1129V17.1129C22.9993 16.2266 22.7044 15.3657 22.1614 14.6652C21.6184 13.9648 20.8581 13.4645 20 13.2429M16 1.24292C16.8604 1.46322 17.623 1.96362 18.1676 2.66523C18.7122 3.36683 19.0078 4.22974 19.0078 5.11792C19.0078 6.00609 18.7122 6.86899 18.1676 7.5706C17.623 8.27221 16.8604 8.77261 16 8.99292M13 5.11292C13 7.32205 11.2091 9.11292 9 9.11292C6.79086 9.11292 5 7.32205 5 5.11292C5 2.90378 6.79086 1.11292 9 1.11292C11.2091 1.11292 13 2.90378 13 5.11292Z" stroke="#8477DA" stroke-width="1.25" stroke-linecap="round" stroke-linejoin="round"/>
</svg>
