<svg width="384" height="233" viewBox="0 0 384 233" fill="none" xmlns="http://www.w3.org/2000/svg">
<rect x="0.1875" width="383.812" height="232.875" rx="8.625" fill="#F2F4F7"/>
<path d="M193.24 203.118L185.851 198.831L162.81 185.255L161.608 185.827L156.555 188.436H156.497L149.35 184.15L126.688 170.893V69.4788H126.746L196.993 28.75L257.592 64.1743V165.599H257.524L193.24 203.118ZM162.829 185.022L185.919 198.599L193.192 202.807L257.301 165.424V64.3295L196.945 29.0409L196.091 29.5355L126.882 69.6242V170.748L149.418 183.946L156.516 188.193L161.453 185.653L162.829 185.022Z" fill="#667085"/>
<path d="M184.726 199.481L184.668 199.452L161.346 185.944L161.472 185.73L184.726 199.21L185.861 198.628L221.042 178.118L228.422 182.404L228.296 182.618L221.042 178.399L185.977 198.841L184.726 199.481Z" fill="#667085"/>
<path d="M227.724 182.938H227.481V81.6005L227.54 81.5714L257.407 64.1453L257.524 64.3586L227.724 81.7459V182.938Z" fill="#667085"/>
<path d="M134.135 175.393V74.0849H134.203L197.323 37.7006H197.391L250.726 68.5574V169.962L250.542 169.856L197.352 138.999L134.135 175.393ZM134.378 74.2304V174.976L197.206 138.785V37.9915L134.378 74.2304ZM197.41 138.785L250.416 169.536V68.6835L197.449 37.9915L197.41 138.785Z" fill="#667085"/>
<path d="M221.944 186.312L214.623 182.065L214.739 181.852L222.061 186.099L221.944 186.312Z" fill="#667085"/>
<path d="M223.709 185.081L216.388 180.833L216.514 180.62L223.835 184.867L223.709 185.081Z" fill="#667085"/>
<path d="M225.823 183.859L218.511 179.611L218.628 179.408L225.949 183.655L225.823 183.859Z" fill="#667085"/>
<path d="M220.15 187.582L212.819 183.325L212.945 183.122L220.267 187.369L220.15 187.582Z" fill="#667085"/>
<path d="M217.969 188.863L210.647 184.615L210.763 184.402L218.095 188.649L217.969 188.863Z" fill="#667085"/>
<path d="M215.951 189.968L208.63 185.721L208.756 185.508L216.068 189.755L215.951 189.968Z" fill="#667085"/>
<path d="M213.857 191.064L206.535 186.816L206.661 186.603L213.983 190.851L213.857 191.064Z" fill="#667085"/>
<path d="M211.917 192.189L204.586 187.932L204.712 187.728L212.034 191.975L211.917 192.189Z" fill="#667085"/>
<path d="M209.803 193.478L202.482 189.231L202.598 189.018L209.92 193.265L209.803 193.478Z" fill="#667085"/>
<path d="M207.505 194.71L200.184 190.463L200.3 190.259L207.621 194.506L207.505 194.71Z" fill="#667085"/>
<path d="M205.226 195.942L197.905 191.694L198.031 191.481L205.352 195.728L205.226 195.942Z" fill="#667085"/>
<path d="M203.19 197.387L195.868 193.139L195.994 192.926L203.316 197.173L203.19 197.387Z" fill="#667085"/>
<path d="M200.571 198.657L193.25 194.41L193.376 194.196L200.697 198.444L200.571 198.657Z" fill="#667085"/>
<path d="M198.302 200.189L190.981 195.942L191.097 195.728L198.419 199.976L198.302 200.189Z" fill="#667085"/>
<path d="M195.742 201.479L188.421 197.231L188.537 197.018L195.859 201.266L195.742 201.479Z" fill="#667085"/>
<path d="M156.691 188.339H156.449V86.934L126.746 69.663L126.872 69.4497L156.691 86.7982V188.339Z" fill="#667085"/>
<path d="M162.946 185.168H162.703V83.5205L140.526 70.623L140.652 70.4097L162.946 83.3847V185.168Z" fill="#667085"/>
<path d="M192.959 202.158L140.467 171.621V70.5165H140.71V171.475L193.085 201.954L192.959 202.158Z" fill="#667085"/>
<path d="M156.623 86.9729L156.507 86.7595L162.762 83.3461L162.878 83.5594L156.623 86.9729Z" fill="#667085"/>
<path d="M257.689 200.635L257.514 200.529L227.365 182.967V81.4551L227.549 81.5617L257.689 99.0848V200.635ZM227.627 182.831L257.466 200.218V99.2691L227.627 81.8818V182.831Z" fill="#667085"/>
<path d="M193.143 202.972H192.901V101.577L162.761 83.5594L162.888 83.3461L193.143 101.432V202.972Z" fill="#667085"/>
<path d="M252.229 131.212L246.954 128.429V125.791L249.087 124.967L251.027 126.208L252.045 125.704L254.198 126.994V130.271H254.13L252.229 131.212ZM247.196 128.303L252.239 130.96L253.955 130.136V127.149L252.016 125.995L251.046 126.509L249.107 125.258L247.245 125.975L247.196 128.303Z" fill="#667085"/>
<path d="M254.023 130.301L249.058 127.614L247.128 128.468L247.031 128.245L249.068 127.343L249.116 127.372L254.14 130.087L254.023 130.301Z" fill="#667085"/>
<path d="M254.023 128.681L252.016 127.537L251.075 127.934L251.027 127.905L249.058 126.829L247.128 127.663L247.031 127.44L249.068 126.557L251.095 127.663L252.035 127.265L254.14 128.477L254.023 128.681Z" fill="#667085"/>
<g opacity="0.14">
<path d="M193.027 101.499L140.69 70.5747L140.594 70.7977V171.543L193.027 202.051V101.499Z" fill="#667085"/>
</g>
<g opacity="0.14">
<path d="M250.581 68.6353V169.749L227.491 182.899V81.6685L250.581 68.6353Z" fill="#667085"/>
</g>
<g opacity="0.14">
<path d="M257.572 99.2012L227.598 81.6685L227.491 182.899L257.572 200.432V99.2012Z" fill="#667085"/>
</g>
</svg>
