<svg width="126" height="126" viewBox="0 0 126 126" fill="none" xmlns="http://www.w3.org/2000/svg">
<path d="M63 32C63 31.7635 63 31.6453 63.0746 31.5719C63.1493 31.4984 63.2662 31.5003 63.5 31.504C68.8565 31.589 74.1058 33.0389 78.75 35.7202C83.5386 38.4849 87.5151 42.4614 90.2798 47.25C93.0445 52.0386 94.5 57.4706 94.5 63C94.5 68.5294 93.0445 73.9614 90.2798 78.75C87.5151 83.5386 83.5386 87.5151 78.75 90.2798C73.9614 93.0445 68.5294 94.5 63 94.5C57.4706 94.5 52.0386 93.0445 47.25 90.2798C42.6058 87.5985 38.7255 83.7774 35.9736 79.181C35.8535 78.9804 35.7934 78.8801 35.8197 78.7787C35.846 78.6773 35.9484 78.6182 36.1532 78.5L62.75 63.1443C62.872 63.0739 62.933 63.0387 62.9665 62.9807C63 62.9226 63 62.8522 63 62.7113V32Z" fill="#8477DA"/>
<circle cx="63" cy="63" r="43" stroke="#8477DA" stroke-width="2"/>
</svg>
